# xmcd
#
# Track frame offsets: 
#        150
#        16818
#        37306
#        52587
#        68799
#        85734
#        102968
#        124267
#        147410
#        162764
#        179411
#        193575
#        211465
#        230813
#        243861
#        257831
#        273854
#        289629
#        306472
#        320065
#
# Disc length: 4477 seconds
#
# Revision: 0
# Processed by: cddbd v1.5.2PL0 Copyright (c) Steve Scherf et al.
# Submitted via: ExactAudioCopy v1.0b3
#
DISCID=26117b14
DTITLE=Various Artist - The Cream Of Female Vocal Trance Vol. 4 - CD 2
DYEAR=1900
DGENRE=
TTITLE0=Jessica Born - Feel The Rhythm
TTITLE1=Hans Vayer - Shiver
TTITLE2=Cube 'd - Like An Eagle (Ralph Fridge Radio Edit)
TTITLE3=Zane and Faster Feat. Dany D. - When I´m With You (Radio Edit)
TTITLE4=Alex B. Meets John P. - Never Let This Record Stop (Radio Edit
TTITLE4=)
TTITLE5=Incage - Precious Kind
TTITLE6=Lichtenfels - B-Boys Fly Girls
TTITLE7=Club Caviar - I Wish
TTITLE8=Cyber X Feat. Jody Watley - Waves Of Love (Green Court Remix E
TTITLE8=dit)
TTITLE9=Laura Branigan - Gloria 2004 (Discotronix Remix Edit)
TTITLE10=4 Strings - Turn It Around (Radio Edit)
TTITLE11=Polartraxx Vs. Unicorn - Hero (Wavetraxx Remix Edit)
TTITLE12=Melino Feat. Nachtschwester - This Feeling (Arena Allstars Rm
TTITLE12=x)
TTITLE13=Space Deejays - Carry On
TTITLE14=DJ Tatana Feat. Jaél - Always On My Mind (Radio Edit)
TTITLE15=Seikos - Reality
TTITLE16=Angel - Angel Of Light
TTITLE17=Alex Megane - So Today (Radio Cut)
TTITLE18=Caater - The Queen Of Night (Sunshine Remix Edit)
TTITLE19=Markus F. - Turn The Page (C-Base Vs. Villa Radio Edit)
EXTD=
EXTT0=
EXTT1=
EXTT2=
EXTT3=
EXTT4=
EXTT5=
EXTT6=
EXTT7=
EXTT8=
EXTT9=
EXTT10=
EXTT11=
EXTT12=
EXTT13=
EXTT14=
EXTT15=
EXTT16=
EXTT17=
EXTT18=
EXTT19=
PLAYORDER=
